<?xml version="1.0" encoding="utf-8"?>
<!-- Generator: Adobe Illustrator 17.1.0, SVG Export Plug-In . SVG Version: 6.00 Build 0)  -->
<!DOCTYPE svg PUBLIC "-//W3C//DTD SVG 1.1//EN" "http://www.w3.org/Graphics/SVG/1.1/DTD/svg11.dtd">
<svg version="1.1" id="Calque_1" xmlns="http://www.w3.org/2000/svg" xmlns:xlink="http://www.w3.org/1999/xlink" x="0px" y="0px"
	 viewBox="0 0 256 256" enable-background="new 0 0 256 256" xml:space="preserve">
<path opacity="0.2" fill="#1D1D1B" d="M227.5,137.1c0.3-3.3,0.5-6.7,0.5-10.1s-0.2-6.8-0.5-10.1l-13.3-4.9
	c-0.8-4.9-2.1-9.6-3.7-14.1l9.1-11c-2.7-6.2-6-12-9.9-17.5l-13.9,2.4c-3.2-3.9-6.8-7.6-10.6-10.9l2.4-14.1
	c-5.2-3.9-10.8-7.3-16.7-10.1l-10.8,8.9c-5-2-10.3-3.5-15.8-4.6l-4.9-13.4c-3.8-0.4-7.6-0.7-11.4-0.7c-2.5,0-4.9,0.1-7.4,0.3
	l-4.8,13.1c-6,0.8-11.7,2.3-17.2,4.2l-10.9-9.1c-5.5,2.5-10.8,5.4-15.8,8.8L74.2,58c-5,3.9-9.5,8.3-13.6,13.2l-13.9-2.4
	c-3.4,4.7-6.4,9.8-8.9,15.1l8.9,10.7c-2.4,6-4.1,12.3-5.2,18.9l-13.2,4.9c-0.2,2.9-0.4,5.7-0.4,8.7s0.1,5.8,0.4,8.7l13.2,4.9
	c1,6.6,2.8,12.9,5.2,18.9l-8.9,10.7c2.5,5.3,5.5,10.3,8.9,15.1l13.9-2.4c4,4.9,8.6,9.3,13.6,13.2l-2.4,13.7c5,3.4,10.2,6.3,15.8,8.8
	l10.9-9.1c5.5,2,11.3,3.4,17.2,4.2l4.8,13.1c2.4,0.2,4.9,0.3,7.4,0.3c3.9,0,7.7-0.2,11.4-0.7l4.9-13.4c5.5-1,10.7-2.6,15.8-4.6
	l10.8,8.9c5.9-2.8,11.5-6.2,16.7-10.1l-2.4-14.1c3.8-3.3,7.4-7,10.6-10.9l13.9,2.4c3.9-5.5,7.2-11.3,9.9-17.5l-9.1-11
	c1.6-4.5,2.9-9.3,3.7-14.1L227.5,137.1z M175.2,90.1c-4.1,0.1-6.9-2.3-7-6c0-1.3,0.3-2.5,1.2-3.9c0.9-1.8,1.1-2,1.1-2.7
	c-0.1-2.3-3.6-2.4-4.5-2.4c-13.1,0.4-16.6,18.2-19.4,32.6l-1.4,7.6c7.6,1.1,12.9-0.3,15.9-2.2c4.2-2.7-1.2-5.6-0.5-8.7
	c0.7-3.2,3.6-4.7,5.9-4.8c3.2-0.1,5.5,3.3,5.4,6.6c-0.1,5.6-7.5,13.3-22.4,13c-1.8,0-3.5-0.2-5-0.4l-2.8,15.4
	c-2.5,11.7-5.8,27.7-17.7,41.6c-10.2,12.2-20.6,14-25.3,14.2c-8.7,0.3-14.5-4.3-14.7-10.5c-0.2-6,5.1-9.3,8.6-9.4
	c4.6-0.2,7.9,3.2,8,7.1c0.1,3.3-1.6,4.3-2.7,4.9c-0.8,0.6-1.9,1.2-1.9,2.6c0,0.6,0.6,1.9,2.6,1.8c3.7-0.1,6.1-1.9,7.8-3.2
	c8.5-7.1,11.7-19.4,16-41.8l0.9-5.4c1.5-7.3,3.1-15.4,5.5-23.5c-6-4.5-9.5-10.1-17.6-12.2c-5.5-1.5-8.9-0.2-11.2,2.8
	c-2.8,3.5-1.9,8.1,0.8,10.8l4.5,4.9c5.5,6.3,8.5,11.2,7.3,17.9c-1.8,10.6-14.4,18.7-29.2,14.1c-12.7-3.9-15.1-12.9-13.5-17.9
	c1.3-4.4,4.8-5.2,8.2-4.1c3.6,1.1,5,5.5,4,8.9c-0.1,0.4-0.3,1-0.7,1.8c-0.4,0.9-1.2,1.8-1.5,2.8c-0.8,2.7,2.8,4.5,5.4,5.3
	c5.7,1.7,11.2-1.2,12.6-5.8c1.3-4.2-1.4-7.2-2.5-8.3l-5.4-5.8c-2.5-2.7-7.9-10.4-5.2-19c1-3.3,3.2-6.8,6.3-9.1
	c6.6-4.9,13.7-5.7,20.5-3.7c8.8,2.5,13,8.3,18.5,12.8c3.1-9,7.3-17.8,13.7-25.2c5.8-6.8,13.5-11.7,22.4-12
	c8.9-0.3,15.6,3.7,15.8,10.1C182.2,84.7,180.6,90,175.2,90.1z"/>
</svg>
