<?xml version="1.0" encoding="utf-8"?>
<!-- Generator: Adobe Illustrator 17.1.0, SVG Export Plug-In . SVG Version: 6.00 Build 0)  -->
<!DOCTYPE svg PUBLIC "-//W3C//DTD SVG 1.1//EN" "http://www.w3.org/Graphics/SVG/1.1/DTD/svg11.dtd">
<svg version="1.1" id="logo" xmlns="http://www.w3.org/2000/svg" xmlns:xlink="http://www.w3.org/1999/xlink" x="0px" y="0px"
	 viewBox="0 0 256 256" enable-background="new 0 0 256 256" xml:space="preserve">
<path fill="#1D1D1B" d="M255.3,141c0.4-4.3,0.7-8.6,0.7-13s-0.2-8.7-0.7-13l-17-6.3c-1.1-6.2-2.7-12.3-4.7-18.1l11.7-14
	c-3.5-7.9-7.7-15.4-12.6-22.4l-17.8,3c-4.1-5.1-8.7-9.7-13.6-14l3.1-18c-6.7-5-13.9-9.3-21.4-12.9l-13.8,11.4
	c-6.5-2.6-13.2-4.5-20.2-5.8l-6.3-17.1C137.8,0.3,132.9,0,128,0c-3.2,0-6.3,0.1-9.4,0.3l-6.2,16.7c-7.6,1.1-15,2.9-22.1,5.4
	l-14-11.6c-7.1,3.1-13.9,6.9-20.2,11.2l3,17.6c-6.4,5-12.2,10.6-17.4,16.9l-17.8-3.1c-4.3,6.1-8.2,12.5-11.4,19.3l11.4,13.8
	c-3.1,7.7-5.3,15.8-6.6,24.2l-16.8,6.2C0.2,120.6,0,124.3,0,128s0.2,7.4,0.5,11.1l16.8,6.2c1.3,8.4,3.5,16.5,6.6,24.2l-11.4,13.8
	c3.2,6.8,7.1,13.2,11.4,19.3l17.8-3.1c5.2,6.2,11,11.9,17.4,16.9l-3,17.6c6.3,4.3,13.1,8.1,20.2,11.2l14-11.6
	c7.1,2.5,14.4,4.4,22.1,5.4l6.2,16.7c3.1,0.2,6.3,0.3,9.4,0.3c4.9,0,9.8-0.3,14.6-0.8L149,238c7-1.3,13.7-3.3,20.2-5.8l13.8,11.4
	c7.6-3.6,14.8-7.9,21.4-12.9l-3.1-18c4.9-4.3,9.5-9,13.6-14l17.8,3c4.9-7,9.2-14.5,12.6-22.4l-11.7-14c2.1-5.8,3.7-11.9,4.7-18.1
	L255.3,141z"/>
<path fill="#FFFFFF" d="M177,57.4c-11.4,0.4-21.3,6.7-28.7,15.3c-8.2,9.5-13.6,20.8-17.6,32.3c-7-5.8-12.4-13.2-23.7-16.4
	c-8.7-2.5-17.8-1.5-26.3,4.8c-4,3-6.7,7.5-8,11.7c-3.4,11,3.6,20.8,6.7,24.3l6.9,7.4c1.4,1.4,4.8,5.2,3.2,10.6
	c-1.8,5.9-8.9,9.7-16.2,7.5c-3.2-1-7.9-3.4-6.9-6.8c0.4-1.4,1.4-2.4,2-3.6c0.5-1,0.7-1.8,0.9-2.3c1.3-4.3-0.5-10-5.1-11.4
	c-4.3-1.3-8.8-0.3-10.5,5.3c-2,6.3,1.1,17.8,17.3,22.8c19,5.9,35.1-4.5,37.4-18c1.4-8.5-2.4-14.8-9.4-22.8l-5.7-6.3
	c-3.5-3.5-4.6-9.3-1.1-13.9c3-3.8,7.3-5.4,14.4-3.5c10.3,2.8,14.9,9.9,22.5,15.7c-3.2,10.4-5.2,20.8-7.1,30.1l-1.1,7
	c-5.5,28.7-9.6,44.4-20.5,53.4c-2.2,1.6-5.3,3.9-10,4c-2.5,0.1-3.3-1.6-3.3-2.4c-0.1-1.7,1.4-2.5,2.4-3.3c1.5-0.8,3.6-2.1,3.5-6.3
	c-0.2-5-4.3-9.3-10.2-9.1c-4.5,0.2-11.2,4.3-11,12c0.3,7.9,7.6,13.9,18.8,13.5c5.9-0.2,19.2-2.6,32.3-18.2
	c15.2-17.8,19.5-38.3,22.7-53.3l3.6-19.8c2,0.2,4.1,0.4,6.4,0.5c19,0.4,28.5-9.4,28.6-16.6c0.1-4.3-2.8-8.6-6.9-8.5
	c-2.9,0.1-6.6,2-7.5,6.1c-0.9,4,6,7.6,0.6,11.1c-3.8,2.5-10.7,4.2-20.4,2.8l1.8-9.7c3.6-18.4,8-41.1,24.8-41.7
	c1.2-0.1,5.7,0.1,5.8,3c0,1-0.2,1.2-1.4,3.5c-1.2,1.8-1.6,3.3-1.6,5c0.2,4.7,3.7,7.8,8.9,7.6c6.9-0.2,8.9-7,8.8-10.5
	C196.9,62.2,188.3,57.1,177,57.4z"/>
</svg>
